<svg xmlns="http://www.w3.org/2000/svg" viewBox="0 0 24 24" width="24" height="24"><g fill="#6c9dff"><path d="M12 2c-2.8 0-4.4 2.2-4.4 4.9 0 1.5.3 2.6-.4 4-1 1.8-2.6 3.4-2.6 5.6 0 1.1.4 2 1.2 2.5.5-1.5 1.9-2.6 3.1-3.2-.4-.7-.6-1.5-.6-2.3h.9c0 1.7 1.2 3.4 2.8 3.4s2.8-1.7 2.8-3.4h.9c0 .8-.2 1.6-.6 2.3 1.2.6 2.6 1.7 3.1 3.2.8-.5 1.2-1.4 1.2-2.5 0-2.2-1.6-3.8-2.6-5.6-.7-1.4-.4-2.5-.4-4C16.4 4.2 14.8 2 12 2z"/><path d="M8.6 19.5c-.9-.9-2.5-.9-3.2.2-.5.8-.2 1.9.7 2.1 1 .3 2.2.2 3.2-.1.8-.2.9-1.6-.7-2.2zM15.4 19.5c.9-.9 2.5-.9 3.2.2.5.8.2 1.9-.7 2.1-1 .3-2.2.2-3.2-.1-.8-.2-.9-1.6.7-2.2z"/><ellipse cx="10.4" cy="7.4" rx=".9" ry="1.2" fill="#0c0e14"/><ellipse cx="13.6" cy="7.4" rx=".9" ry="1.2" fill="#0c0e14"/></g></svg>
